<svg width="10" height="11" viewBox="0 0 10 11" fill="none" xmlns="http://www.w3.org/2000/svg">
<path fill-rule="evenodd" clip-rule="evenodd" d="M1.08333 0H8.66667C9.2625 0 9.75 0.4875 9.75 1.08333V9.31667C9.75 10.075 8.99167 10.6167 8.2875 10.3458L7.42083 10.0208C7.15 9.9125 6.87917 9.9125 6.60833 10.075L5.30833 10.6708C5.0375 10.7792 4.7125 10.7792 4.44167 10.6708L3.14167 10.075C2.87083 9.96667 2.6 9.96667 2.32917 10.0208L1.4625 10.2917C0.758333 10.5625 0 10.0208 0 9.31667V1.08333C0 0.4875 0.4875 0 1.08333 0ZM7.58333 3.14167C7.8 3.14167 8.01667 2.97917 8.01667 2.70833C8.01667 2.4375 7.8 2.275 7.58333 2.275H2.16667C1.95 2.275 1.73333 2.49167 1.73333 2.70833C1.73333 2.925 1.95 3.14167 2.16667 3.14167H7.58333ZM8.01667 4.875C8.01667 5.09167 7.85417 5.30833 7.58333 5.30833H2.16667C1.95 5.30833 1.73333 5.14583 1.73333 4.875C1.73333 4.60417 1.89583 4.44167 2.16667 4.44167H7.58333C7.8 4.44167 8.01667 4.65833 8.01667 4.875ZM4.875 7.475C5.09167 7.475 5.30833 7.3125 5.30833 7.04167C5.30833 6.77083 5.14583 6.60833 4.875 6.60833H2.16667C1.95 6.60833 1.73333 6.77083 1.73333 7.04167C1.73333 7.3125 1.89583 7.475 2.16667 7.475H4.875Z" fill="url(#paint0_linear_2297_2657)"/>
<defs>
<linearGradient id="paint0_linear_2297_2657" x1="0" y1="5.37604" x2="9.75" y2="5.37604" gradientUnits="userSpaceOnUse">
<stop stop-color="#3C5D87"/>
<stop offset="1" stop-color="#0F1721"/>
</linearGradient>
</defs>
</svg>
