<svg width="19" height="19" viewBox="0 0 19 19" fill="none" xmlns="http://www.w3.org/2000/svg">
<path fill-rule="evenodd" clip-rule="evenodd" d="M7.51109 2.03658L9.85406 2.94761L2.85902 5.66758L0.408352 4.71465L7.29593 2.03658C7.36781 2.00856 7.43913 2.00856 7.51109 2.03658ZM14.8069 9.85979C16.7743 9.85979 18.3691 11.4547 18.3691 13.4221C18.3691 15.3895 16.7743 16.9844 14.8069 16.9844C12.8396 16.9844 11.2446 15.3895 11.2446 13.4221C11.2446 11.4547 12.8395 9.85979 14.8069 9.85979ZM16.1558 11.7976L14.0455 13.9078L13.3255 13.0015C13.1483 12.7787 12.824 12.7417 12.6012 12.9188C12.3784 13.096 12.3413 13.4202 12.5185 13.6431L13.5783 14.9766C13.7615 15.2391 14.1388 15.275 14.3672 15.0467L16.886 12.5278C17.0877 12.3262 17.0877 11.9993 16.886 11.7976C16.6843 11.596 16.3574 11.596 16.1558 11.7976ZM12.356 3.92043C10.0243 4.82717 7.69266 5.73386 5.36086 6.64037L7.40347 7.43458L14.3986 4.71465L12.356 3.92043ZM14.8069 5.19084L7.70034 7.95411V16.1854L10.9326 14.9286C10.7508 14.4615 10.6509 13.9535 10.6509 13.4221C10.6509 11.1268 12.5116 9.26611 14.8069 9.26611V5.19084ZM7.10659 16.1853V7.95411L4.95265 7.11663V8.85476C4.95265 8.93877 4.8545 8.98412 4.7906 8.92964L3.64744 7.95604L2.57836 8.28851C2.51472 8.30832 2.45078 8.26127 2.45078 8.19466V6.14381L0 5.19087V13.219C0 13.3439 0.0729199 13.4505 0.189406 13.4957L7.10659 16.1853Z" fill="currentColor"/>
</svg>
