<svg width="18" height="17" viewBox="0 0 18 17" fill="none" xmlns="http://www.w3.org/2000/svg">
<path d="M14.3086 0C12.2734 0 10.6172 1.65618 10.6172 3.69141C10.6172 5.72664 12.2734 7.38281 14.3086 7.38281C16.3438 7.38281 18 5.72664 18 3.69141C18 1.65618 16.3438 0 14.3086 0ZM15.8906 4.21875H14.8359V5.27344H13.7812V4.21875H12.7266V3.16406H13.7812V2.10938H14.8359V3.16406H15.8906V4.21875Z" fill="currentColor"/>
<path d="M4.81641 12.6562C5.1082 12.6562 15.109 12.6562 14.7165 12.6562L15.8855 8.14757C15.5191 8.27772 15.1333 8.3585 14.7321 8.39468L14.721 8.4375H12.2447L12.284 7.96672C11.9196 7.7933 11.5867 7.5716 11.2804 7.31521L11.1869 8.4375H8.99279L8.81698 6.32812H10.3659C10.1489 6.00465 9.98698 5.64623 9.85402 5.27344H4.88781L4.18454 2.10938H0V3.16406H3.33893L5.21346 11.6016H4.81641C3.94404 11.6016 3.23438 12.3112 3.23438 13.1836C3.23438 14.056 3.94404 14.7656 4.81641 14.7656H5.44089C5.38179 14.9314 5.34375 15.1072 5.34375 15.293C5.34375 16.1653 6.05341 16.875 6.92578 16.875C7.79815 16.875 8.50781 16.1653 8.50781 15.293C8.50781 15.1072 8.46977 14.9314 8.41068 14.7656H10.7143C10.6552 14.9314 10.6172 15.1072 10.6172 15.293C10.6172 16.1653 11.3269 16.875 12.1992 16.875C13.0716 16.875 13.7812 16.1653 13.7812 15.293C13.7812 15.1072 13.7432 14.9314 13.6841 14.7656H14.8359V13.7109H4.81641C4.52545 13.7109 4.28906 13.4745 4.28906 13.1836C4.28906 12.8926 4.52545 12.6562 4.81641 12.6562ZM12.1569 9.49219H14.4476L13.9007 11.6016H11.981L12.1569 9.49219ZM11.099 9.49219L10.9232 11.6016H9.25643L9.08061 9.49219H11.099ZM8.19861 11.6016H6.29427L5.82543 9.49219H8.0228L8.19861 11.6016ZM5.1222 6.32812H7.75916L7.93498 8.4375H5.59107L5.1222 6.32812ZM7.45312 15.293C7.45312 15.5839 7.21673 15.8203 6.92578 15.8203C6.63483 15.8203 6.39844 15.5839 6.39844 15.293C6.39844 15.002 6.63483 14.7656 6.92578 14.7656C7.21673 14.7656 7.45312 15.002 7.45312 15.293ZM12.7266 15.293C12.7266 15.5839 12.4902 15.8203 12.1992 15.8203C11.9083 15.8203 11.6719 15.5839 11.6719 15.293C11.6719 15.002 11.9083 14.7656 12.1992 14.7656C12.4902 14.7656 12.7266 15.002 12.7266 15.293Z" fill="currentColor"/>
</svg>
