<svg width="29" height="30" viewBox="0 0 29 30" fill="none" xmlns="http://www.w3.org/2000/svg">
<g clip-path="url(#clip0_2297_1721)">
<path d="M25.8824 13.8865L25.2117 14.3934C25.1578 12.2739 24.5206 10.2103 23.3701 8.42941C22.2196 6.64851 20.6004 5.21928 18.6905 4.2988C16.7805 3.37833 14.6538 3.00226 12.544 3.21193C10.4342 3.42159 8.423 4.20888 6.73155 5.48725C4.91234 6.86227 3.54173 8.74588 2.79306 10.8999C2.04439 13.0539 1.95128 15.3815 2.5255 17.5884C3.09973 19.7953 4.3155 21.7824 6.01907 23.2984C7.72264 24.8143 9.83749 25.791 12.0962 26.105C12.3546 26.1409 12.6166 26.0727 12.8248 25.9154C13.0329 25.7581 13.17 25.5246 13.2059 25.2662C13.2418 25.0078 13.1736 24.7457 13.0163 24.5376C12.859 24.3295 12.6255 24.1924 12.3671 24.1565C7.14465 23.4302 3.48655 18.5906 4.21264 13.3682C4.93873 8.14573 9.77827 4.48763 15.0007 5.21372C19.4341 5.83009 22.7393 9.41094 23.193 13.6738L23.0032 13.4226C22.9253 13.3196 22.8279 13.2329 22.7165 13.1675C22.6051 13.1021 22.4819 13.0592 22.354 13.0415C22.226 13.0237 22.0958 13.0313 21.9708 13.0638C21.8458 13.0963 21.7284 13.1532 21.6253 13.2311C21.5223 13.309 21.4356 13.4064 21.3702 13.5178C21.3048 13.6292 21.262 13.7524 21.2442 13.8803C21.2264 14.0083 21.234 14.1385 21.2665 14.2635C21.2991 14.3885 21.3559 14.5059 21.4338 14.6089L23.2969 17.0737C23.4542 17.2819 23.6878 17.4189 23.9462 17.4549C24.2046 17.4908 24.4666 17.4226 24.6747 17.2653L27.0686 15.4559C27.1717 15.378 27.2584 15.2806 27.3238 15.1692C27.3892 15.0578 27.432 14.9346 27.4498 14.8067C27.4676 14.6787 27.46 14.5485 27.4274 14.4235C27.3949 14.2985 27.3381 14.1811 27.2602 14.0781C27.1823 13.975 27.0849 13.8883 26.9735 13.8229C26.8621 13.7575 26.7389 13.7147 26.611 13.6969C26.483 13.6791 26.3528 13.6867 26.2278 13.7193C26.1028 13.7518 25.9854 13.8086 25.8824 13.8865Z" fill="black"/>
<path d="M25.8824 13.8865L25.2117 14.3934C25.1578 12.2739 24.5206 10.2103 23.3701 8.42941C22.2196 6.64851 20.6004 5.21928 18.6905 4.2988C16.7805 3.37833 14.6538 3.00226 12.544 3.21193C10.4342 3.42159 8.423 4.20888 6.73155 5.48725C4.91234 6.86227 3.54173 8.74588 2.79306 10.8999C2.04439 13.0539 1.95128 15.3815 2.5255 17.5884C3.09973 19.7953 4.3155 21.7824 6.01907 23.2984C7.72264 24.8143 9.83749 25.791 12.0962 26.105C12.3546 26.1409 12.6166 26.0727 12.8248 25.9154C13.0329 25.7581 13.17 25.5246 13.2059 25.2662C13.2418 25.0078 13.1736 24.7457 13.0163 24.5376C12.859 24.3295 12.6255 24.1924 12.3671 24.1565C7.14465 23.4302 3.48655 18.5906 4.21264 13.3682C4.93873 8.14573 9.77827 4.48763 15.0007 5.21372C19.4341 5.83009 22.7393 9.41094 23.193 13.6738L23.0032 13.4226C22.9253 13.3196 22.8279 13.2329 22.7165 13.1675C22.6051 13.1021 22.4819 13.0592 22.354 13.0415C22.226 13.0237 22.0958 13.0313 21.9708 13.0638C21.8458 13.0963 21.7284 13.1532 21.6253 13.2311C21.5223 13.309 21.4356 13.4064 21.3702 13.5178C21.3048 13.6292 21.262 13.7524 21.2442 13.8803C21.2264 14.0083 21.234 14.1385 21.2665 14.2635C21.2991 14.3885 21.3559 14.5059 21.4338 14.6089L23.2969 17.0737C23.4542 17.2819 23.6878 17.4189 23.9462 17.4549C24.2046 17.4908 24.4666 17.4226 24.6747 17.2653L27.0686 15.4559C27.1717 15.378 27.2584 15.2806 27.3238 15.1692C27.3892 15.0578 27.432 14.9346 27.4498 14.8067C27.4676 14.6787 27.46 14.5485 27.4274 14.4235C27.3949 14.2985 27.3381 14.1811 27.2602 14.0781C27.1823 13.975 27.0849 13.8883 26.9735 13.8229C26.8621 13.7575 26.7389 13.7147 26.611 13.6969C26.483 13.6791 26.3528 13.6867 26.2278 13.7193C26.1028 13.7518 25.9854 13.8086 25.8824 13.8865Z" fill="url(#paint0_linear_2297_1721)"/>
</g>
<defs>
<linearGradient id="paint0_linear_2297_1721" x1="16.3223" y1="3.41126" x2="13.1468" y2="26.2511" gradientUnits="userSpaceOnUse">
<stop stop-color="#3C5D87"/>
<stop offset="1" stop-color="#0F1721"/>
</linearGradient>
<clipPath id="clip0_2297_1721">
<rect width="25.1811" height="25.1811" fill="white" transform="translate(4 0.626495) rotate(7.9152)"/>
</clipPath>
</defs>
</svg>
