<svg width="14" height="14" viewBox="0 0 14 14" fill="none" xmlns="http://www.w3.org/2000/svg">
<path d="M0.894063 6.89381H0.5L1.32898 5.45804L2.15788 6.89381H1.76382C1.74989 6.89381 1.73609 6.89655 1.72322 6.90188C1.71034 6.90722 1.69865 6.91503 1.6888 6.92489C1.67895 6.93474 1.67113 6.94644 1.6658 6.95931C1.66047 6.97218 1.65773 6.98598 1.65774 6.99991C1.65774 9.09487 2.8841 10.9939 4.78975 11.8628L4.63824 12.5148C2.42397 11.5646 1.00017 9.41342 1.00017 6.99991C1.00017 6.98598 0.997425 6.97218 0.992093 6.95931C0.986761 6.94643 0.978945 6.93474 0.969092 6.92488C0.959239 6.91503 0.947542 6.90722 0.934668 6.90188C0.921795 6.89655 0.907997 6.89381 0.894063 6.89381ZM7.10608 0.893951C7.10608 0.922088 7.09491 0.949073 7.07501 0.968971C7.05512 0.988869 7.02814 1.00005 7 1.00006C4.58647 1.00006 2.43527 2.42386 1.48503 4.6381L2.13706 4.78961C3.00598 2.88394 4.90505 1.6576 7 1.6576C7.01393 1.6576 7.02773 1.66034 7.0406 1.66567C7.05347 1.671 7.06517 1.67881 7.07502 1.68866C7.08487 1.69851 7.09268 1.71021 7.09801 1.72308C7.10334 1.73595 7.10609 1.74975 7.10608 1.76368V2.15777L8.54179 1.32884L7.10608 0.499863V0.893951ZM12.9999 6.99984C12.9999 4.58628 11.576 2.43511 9.36176 1.48492L9.21028 2.13692C11.1159 3.00584 12.3423 4.90488 12.3423 6.99984C12.3423 7.02797 12.3311 7.05495 12.3112 7.07485C12.2913 7.09474 12.2643 7.10592 12.2362 7.10592H11.8421L12.6711 8.54171L13.5 7.10592H13.106C13.092 7.10592 13.0782 7.10318 13.0654 7.09785C13.0525 7.09252 13.0408 7.08471 13.0309 7.07486C13.0211 7.06501 13.0133 7.05331 13.0079 7.04044C13.0026 7.02757 12.9999 7.01377 12.9999 6.99984ZM7 12.3422C6.98607 12.3422 6.97227 12.3394 6.9594 12.3341C6.94653 12.3287 6.93483 12.3209 6.92498 12.3111C6.91513 12.3012 6.90732 12.2895 6.90199 12.2766C6.89666 12.2638 6.89391 12.25 6.89392 12.236V11.842L5.4582 12.6709L6.89392 13.4999V13.1058C6.89392 13.0776 6.90509 13.0507 6.92499 13.0308C6.94488 13.0109 6.97187 12.9997 7 12.9997C9.41356 12.9997 11.5648 11.5758 12.5149 9.36162L11.8629 9.21009C10.994 11.1158 9.09498 12.3422 7 12.3422ZM7.10611 7.0611V10.4812L10.0681 8.77119V5.35107L7.10611 7.0611ZM5.15997 6.77277L5.72867 7.10112V6.32716C5.72867 6.32597 5.72897 6.32485 5.72902 6.32369C5.7291 6.32132 5.7292 6.31899 5.72943 6.31668C5.72966 6.31449 5.73001 6.31239 5.73037 6.3102C5.7308 6.30766 5.73118 6.30518 5.73176 6.30269C5.73277 6.29855 5.73404 6.29448 5.73555 6.2905C5.73646 6.28804 5.73732 6.2856 5.73842 6.28324C5.73941 6.28108 5.74052 6.27902 5.74167 6.27692C5.74215 6.27603 5.7424 6.27506 5.74291 6.27417C5.74344 6.27328 5.74415 6.27257 5.74469 6.27171C5.74593 6.26968 5.74715 6.26765 5.74855 6.26572C5.75005 6.26361 5.75172 6.2616 5.75342 6.2596C5.75477 6.25797 5.75609 6.25635 5.75753 6.25483C5.75901 6.25325 5.76048 6.25175 5.76205 6.25026C5.76395 6.24851 5.76592 6.24683 5.76795 6.24523C5.76958 6.24385 5.77126 6.24252 5.77297 6.24124C5.7749 6.23987 5.77683 6.23863 5.77881 6.23738C5.77985 6.23677 5.78064 6.23591 5.78168 6.23533L8.79669 4.49462L8.22794 4.16627L5.15997 5.93752V6.77277ZM6.89392 7.0611L5.94086 6.51089V7.28485C5.94086 7.30347 5.93596 7.32177 5.92666 7.3379C5.91735 7.35403 5.90395 7.36742 5.88782 7.37673C5.8717 7.38605 5.8534 7.39094 5.83478 7.39094C5.81615 7.39094 5.79786 7.38603 5.78173 7.37671L5.00084 6.92585C4.98471 6.91654 4.97132 6.90315 4.96201 6.88703C4.9527 6.8709 4.9478 6.85261 4.9478 6.83399V5.93752L3.932 5.35105V8.77119L6.89394 10.4812L6.89392 7.0611ZM4.03808 5.16729L5.05391 5.75377L8.01583 4.04368L7 3.45724L4.03808 5.16729ZM7.00003 6.87738L9.96194 5.16729L9.00891 4.61705L6.04696 6.32714L7.00003 6.87738Z" fill="white"/>
</svg>
