<svg width="10" height="9" viewBox="0 0 10 9" fill="none" xmlns="http://www.w3.org/2000/svg">
<path d="M6.96903 0.308167H1.73442C1.17 0.308167 0.710938 0.767231 0.710938 1.33165V5.91876C0.710938 6.13601 0.956626 6.25847 1.13005 6.13459L2.58785 5.0945C2.71018 5.00735 2.85406 4.96121 3.00432 4.96121H6.2107C6.77512 4.96121 7.23418 4.50215 7.23418 3.93773V0.573318C7.23418 0.426954 7.11539 0.308167 6.96903 0.308167ZM5.6811 3.52021H2.61755C2.47119 3.52021 2.3524 3.40159 2.3524 3.25505C2.3524 3.10869 2.47119 2.9899 2.61755 2.9899H5.6811C5.82747 2.9899 5.94626 3.10869 5.94626 3.25505C5.94626 3.40159 5.82747 3.52021 5.6811 3.52021ZM5.6811 2.28283H2.61755C2.47119 2.28283 2.3524 2.16422 2.3524 2.01768C2.3524 1.87132 2.47119 1.75253 2.61755 1.75253H5.6811C5.82747 1.75253 5.94626 1.87132 5.94626 2.01768C5.94626 2.16422 5.82747 2.28283 5.6811 2.28283Z" fill="white"/>
<path d="M9.76153 3.38847V7.9754C9.76153 8.19118 9.51707 8.316 9.34241 8.19123L7.88461 7.15131C7.76229 7.06417 7.6184 7.01803 7.46815 7.01803H4.26176C3.69735 7.01803 3.23828 6.55879 3.23828 5.99437V5.49164H6.2108C7.06759 5.49164 7.76459 4.79465 7.76459 3.93786V2.36481H8.73804C9.30246 2.36481 9.76153 2.82405 9.76153 3.38847Z" fill="white"/>
</svg>
